<?xml version="1.0" encoding="utf-8"?>
<!-- Generator: Adobe Adobe Illustrator 24.2.0, SVG Export Plug-In . SVG Version: 6.00 Build 0)  -->
<svg version="1.1" id="レイヤー_1" xmlns="http://www.w3.org/2000/svg" xmlns:xlink="http://www.w3.org/1999/xlink" x="0px"
	 y="0px" width="564.66px" height="167.54px" viewBox="0 0 564.66 167.54" style="enable-background:new 0 0 564.66 167.54;"
	 xml:space="preserve">
<path class="st2" d="M16,133.39c-6.71-0.44-11.11-2.27-13.14-5.21c-0.22-0.32-0.64-0.98-0.86-1.31c-1.33-2.04-2-3.7-2-5.01
	c0-27.45,0-82.35,0-109.8C0,5.36,7.18-0.06,15.98,0c10.41,0.08,22.66,0.17,29.16,0.17c9.58,0,26.77,1.41,37.71,5.22
	c19.19,6.68,48.64,23.18,48.64,61.47c0,35.02-5.03,66.99-66.36,66.52c-6.31,0-40.11-0.09-48.57,0
	C16.43,133.39,16.14,133.4,16,133.39z M44.86,19.19c-0.16,0-0.34,0-0.55,0c-8.82-0.07-26.34-0.82-26.41,7.44c0,18.17,0,64.61,0,83
	c0,7.21,1.39,5.85,55.71,5.85c24.91,0,39.88-16.68,39.88-48.61c0-26.78-24.95-40.59-33.35-43.23
	C72.52,21.25,54.76,19.19,44.86,19.19z"/>
<path class="st2" d="M140.96,44.73c0-3.67,1.32-6.83,3.95-9.47s5.79-3.95,9.47-3.95c3.83,0,7.07,1.32,9.7,3.95
	c2.64,2.64,3.95,5.79,3.95,9.47c0,3.68-1.32,6.79-3.95,9.34c-2.64,2.56-5.87,3.83-9.7,3.83c-3.68,0-6.83-1.28-9.47-3.83
	C142.28,51.53,140.96,48.41,140.96,44.73z"/>
<path class="st2" d="M78.89,71.33c0-3.67,1.32-6.83,3.95-9.47s5.79-3.95,9.47-3.95c3.83,0,7.07,1.32,9.7,3.95
	c2.64,2.64,3.95,5.79,3.95,9.47c0,3.68-1.32,6.79-3.95,9.34c-2.64,2.56-5.87,3.83-9.7,3.83c-3.68,0-6.83-1.28-9.47-3.83
	C80.2,78.12,78.89,75.01,78.89,71.33z"/>
<path class="st2" d="M162.04,125.75c-0.1,2.49-0.9,4.33-2.39,5.53s-3.14,1.79-4.93,1.79s-3.39-0.55-4.78-1.64
	c-1.4-1.09-2.24-2.79-2.54-5.08l-0.45-56.79c0.5-2.09,1.39-3.66,2.69-4.71c1.29-1.05,2.84-1.57,4.63-1.57
	c1.59,0,3.09,0.47,4.48,1.42c1.39,0.95,2.34,2.42,2.84,4.41L162.04,125.75z"/>
<path class="st2" d="M234.82,126.05c-0.1,2.49-0.92,4.33-2.47,5.53c-1.55,1.2-3.16,1.79-4.86,1.79c-1.79,0-3.41-0.55-4.86-1.64
	c-1.45-1.09-2.32-2.79-2.62-5.08c0-1.09,0-2.32,0-3.66s-0.03-3.14-0.07-5.38c-0.05-2.24-0.07-5.13-0.07-8.67c0-3.54,0-8.14,0-13.82
	c0-1.29,0.05-2.94,0.15-4.93c0.1-1.99,0-3.96-0.3-5.9c-0.3-1.94-0.87-3.61-1.72-5.01c-0.85-1.39-2.17-2.09-3.96-2.09
	c-2.99,0-5.9,0.85-8.74,2.54c-2.84,1.7-5.41,4.18-7.7,7.47c-0.8,1.2-1.42,2.32-1.87,3.36s-0.77,2.57-0.97,4.56
	c0,5.08,0,10.09,0,15.02s0.05,9.94,0.15,15.02c-0.1,2.49-0.9,4.33-2.39,5.53c-1.49,1.2-3.14,1.79-4.93,1.79
	c-1.7,0-3.26-0.55-4.71-1.64c-1.45-1.09-2.32-2.79-2.62-5.08v-26.9c0-4.38-0.03-8.79-0.07-13.23c-0.05-4.43-0.07-9.04-0.07-13.82
	c0.5-2.19,1.42-3.79,2.77-4.78c1.34-0.99,2.86-1.49,4.56-1.49c1.39,0,2.79,0.42,4.18,1.27c1.39,0.85,2.34,2.12,2.84,3.81
	c2.89-1.99,5.98-3.56,9.27-4.71c3.29-1.14,6.67-1.72,10.16-1.72c3.79,0,7.4,0.9,10.83,2.69c3.44,1.79,6.2,4.54,8.29,8.22
	c0.99,1.79,1.64,3.69,1.94,5.68c0.3,1.99,0.45,4.04,0.45,6.13c0,2.09-0.1,4.16-0.3,6.2c-0.2,2.04-0.3,3.96-0.3,5.75V126.05z"/>
<path class="st2" d="M244.96,154.15c0-2.09,0.99-3.79,2.99-5.08c1.99-1.3,4.58-1.45,7.77-0.45c5.78,3.79,11.31,5.68,16.59,5.68
	c5.68,0,9.74-1.32,12.18-3.96c2.44-2.64,3.66-6.5,3.66-11.58v-8.07l-5.98,1.94c-2.39,0.6-4.39,1.02-5.98,1.27
	c-1.59,0.25-3.19,0.37-4.78,0.37c-4.48,0-8.59-0.97-12.33-2.91c-3.74-1.94-6.9-4.48-9.49-7.62c-2.59-3.14-4.61-6.67-6.05-10.61
	c-1.45-3.93-2.17-7.94-2.17-12.03c0-2.29,0.2-4.63,0.6-7.02c0.4-2.39,1.05-4.73,1.94-7.02c1.1-2.79,2.62-5.43,4.56-7.92
	c1.94-2.49,4.18-4.63,6.73-6.43c2.54-1.79,5.25-3.21,8.14-4.26c2.89-1.05,5.88-1.57,8.97-1.57c3.39,0,6.45,0.58,9.19,1.72
	c2.74,1.15,5.4,2.57,8,4.26c1.39-1.99,3.34-2.99,5.83-2.99c1.69,0,3.24,0.47,4.63,1.42c1.39,0.95,2.34,2.42,2.84,4.41v62.62
	c0,5.28-0.82,9.84-2.47,13.67c-1.64,3.83-4.81,7.3-9.49,10.39c-1.89,1.2-3.99,2.26-6.28,3.21c-2.29,0.95-4.58,1.52-6.87,1.72
	c-2.29,0.3-5.21,0.32-8.74,0.07c-3.54-0.25-7.05-0.9-10.54-1.94c-3.49-1.05-6.53-2.47-9.12-4.26
	C246.71,159.38,245.26,157.04,244.96,154.15z M288.15,114.84c0-4.48-0.03-8.84-0.07-13.08c-0.05-4.23-0.07-8.59-0.07-13.08
	c-1.99-1.79-4.11-3.59-6.35-5.38c-2.24-1.79-4.66-2.79-7.25-2.99c-4.09-0.3-7.35,0.3-9.79,1.79c-2.44,1.49-4.31,3.36-5.6,5.6
	c-1.3,2.24-2.12,4.56-2.47,6.95c-0.35,2.39-0.52,4.33-0.52,5.83c0,3.19,0.45,6.05,1.35,8.59c0.9,2.54,2.12,4.68,3.66,6.43
	c1.54,1.74,3.36,3.09,5.46,4.04c2.09,0.95,4.28,1.42,6.58,1.42C277.64,120.97,282.67,118.93,288.15,114.84z"/>
<path class="st2" d="M370.18,119.63c0.7,1,1.17,1.89,1.42,2.69c0.25,0.8,0.37,1.55,0.37,2.24c0,1.7-0.62,3.16-1.87,4.41
	c-1.25,1.25-2.87,1.87-4.86,1.87c-2.29,0-4.33-0.9-6.13-2.69l-1.79-1.79c-2.89,2.39-6.15,4.16-9.79,5.31
	c-3.64,1.14-7.45,1.72-11.43,1.72c-4.18,0-8.22-0.85-12.1-2.54c-3.89-1.69-7.12-4.28-9.71-7.77c-1.89-2.79-3.29-5.78-4.18-8.97
	c-0.9-3.19-1.35-6.37-1.35-9.56c0-3.49,0.35-6.95,1.05-10.39c0.7-3.44,1.84-6.7,3.44-9.79c1.29-2.49,3.09-4.78,5.38-6.87
	c2.29-2.09,4.73-3.83,7.32-5.23c2.29-1.2,4.88-2.24,7.77-3.14c2.89-0.9,5.68-1.39,8.37-1.5c2.19,0,4.33,0.03,6.43,0.08
	c2.09,0.05,4.13,0.32,6.13,0.82c0-2.79-0.03-5.31-0.07-7.55c-0.05-2.24-0.07-4.41-0.07-6.5c0-3.09-0.03-5.7-0.07-7.85
	c-0.05-2.14-0.08-3.71-0.08-4.71c0.5-2.09,1.42-3.66,2.77-4.71c1.34-1.05,2.86-1.57,4.56-1.57c1.59,0,3.06,0.47,4.41,1.42
	c1.34,0.95,2.37,2.42,3.06,4.41v76.81l0.9,1.2L370.18,119.63z M354.79,110.96c0-1.79,0-3.86,0-6.2c0-2.34,0-4.78,0-7.32
	c0-2.54-0.03-5.05-0.07-7.55c-0.05-2.49-0.07-4.68-0.07-6.58l-1.79-1.5c-1.3-0.3-2.59-0.55-3.89-0.75c-1.3-0.2-2.54-0.3-3.74-0.3
	c-2.29,0-4.54,0.28-6.73,0.82c-2.19,0.55-4.24,1.42-6.13,2.62c-1.89,1.2-3.54,2.72-4.93,4.56c-1.4,1.84-2.44,4.01-3.14,6.5
	c-1.6,5.08-1.84,9.47-0.75,13.15c1.1,3.69,3.04,6.43,5.83,8.22c2.79,1.79,6.1,2.54,9.94,2.24c3.83-0.3,7.7-1.94,11.58-4.93
	L354.79,110.96z"/>
<path class="st2" d="M496.18,127.4c-0.1,2.49-0.92,4.33-2.47,5.53c-1.55,1.2-3.16,1.79-4.86,1.79c-1.79,0-3.41-0.55-4.86-1.64
	c-1.45-1.09-2.32-2.79-2.62-5.08c0-1.09,0-2.32,0-3.66s-0.03-3.14-0.07-5.38c-0.05-2.24-0.07-5.13-0.07-8.67c0-3.54,0-8.14,0-13.82
	c0-1.29,0.05-2.94,0.15-4.93c0.1-1.99,0-3.96-0.3-5.9c-0.3-1.94-0.87-3.61-1.72-5.01c-0.85-1.39-2.17-2.09-3.96-2.09
	c-2.99,0-5.9,0.85-8.74,2.54c-2.84,1.7-5.41,4.18-7.7,7.47c-0.8,1.2-1.42,2.32-1.87,3.36s-0.77,2.57-0.97,4.56
	c0,5.08,0,10.09,0,15.02s0.05,9.94,0.15,15.02c-0.1,2.49-0.9,4.33-2.39,5.53c-1.49,1.2-3.14,1.79-4.93,1.79
	c-1.7,0-3.26-0.55-4.71-1.64c-1.45-1.09-2.32-2.79-2.62-5.08v-26.9c0-4.38-0.03-8.79-0.07-13.23c-0.05-4.43-0.07-9.04-0.07-13.82
	c0.5-2.19,1.42-3.79,2.77-4.78c1.34-0.99,2.86-1.49,4.56-1.49c1.39,0,2.79,0.42,4.18,1.27c1.39,0.85,2.34,2.12,2.84,3.81
	c2.89-1.99,5.98-3.56,9.27-4.71c3.29-1.14,6.67-1.72,10.16-1.72c3.79,0,7.4,0.9,10.83,2.69c3.44,1.79,6.2,4.54,8.29,8.22
	c0.99,1.79,1.64,3.69,1.94,5.68c0.3,1.99,0.45,4.04,0.45,6.13c0,2.09-0.1,4.16-0.3,6.2c-0.2,2.04-0.3,3.96-0.3,5.75V127.4z"/>
<path class="st2" d="M506.82,154.15c0-2.09,0.99-3.79,2.99-5.08c1.99-1.3,4.58-1.45,7.77-0.45c5.78,3.79,11.31,5.68,16.59,5.68
	c5.68,0,9.74-1.32,12.18-3.96c2.44-2.64,3.66-6.5,3.66-11.58v-8.07l-5.98,1.94c-2.39,0.6-4.39,1.02-5.98,1.27
	c-1.59,0.25-3.19,0.37-4.78,0.37c-4.48,0-8.59-0.97-12.33-2.91c-3.74-1.94-6.9-4.48-9.49-7.62c-2.59-3.14-4.61-6.67-6.05-10.61
	c-1.45-3.93-2.17-7.94-2.17-12.03c0-2.29,0.2-4.63,0.6-7.02c0.4-2.39,1.05-4.73,1.94-7.02c1.1-2.79,2.62-5.43,4.56-7.92
	c1.94-2.49,4.18-4.63,6.73-6.43c2.54-1.79,5.25-3.21,8.14-4.26c2.89-1.05,5.88-1.57,8.97-1.57c3.39,0,6.45,0.58,9.19,1.72
	c2.74,1.15,5.4,2.57,8,4.26c1.39-1.99,3.34-2.99,5.83-2.99c1.69,0,3.24,0.47,4.63,1.42c1.39,0.95,2.34,2.42,2.84,4.41v62.62
	c0,5.28-0.82,9.84-2.47,13.67c-1.64,3.83-4.81,7.3-9.49,10.39c-1.89,1.2-3.99,2.26-6.28,3.21c-2.29,0.95-4.58,1.52-6.87,1.72
	c-2.29,0.3-5.21,0.32-8.74,0.07c-3.54-0.25-7.05-0.9-10.54-1.94c-3.49-1.05-6.53-2.47-9.12-4.26
	C508.56,159.38,507.12,157.04,506.82,154.15z M550.01,114.84c0-4.48-0.03-8.84-0.07-13.08c-0.05-4.23-0.07-8.59-0.07-13.08
	c-1.99-1.79-4.11-3.59-6.35-5.38c-2.24-1.79-4.66-2.79-7.25-2.99c-4.09-0.3-7.35,0.3-9.79,1.79c-2.44,1.49-4.31,3.36-5.6,5.6
	c-1.3,2.24-2.12,4.56-2.47,6.95c-0.35,2.39-0.52,4.33-0.52,5.83c0,3.19,0.45,6.05,1.35,8.59c0.9,2.54,2.12,4.68,3.66,6.43
	c1.54,1.74,3.36,3.09,5.46,4.04c2.09,0.95,4.28,1.42,6.58,1.42C539.5,120.97,544.53,118.93,550.01,114.84z"/>
<path class="st2" d="M403.46,133.6c-16.27,0-29.5-14.8-29.5-33c0-18.19,13.23-33,29.5-33s29.5,14.8,29.5,33
	C432.96,118.8,419.72,133.6,403.46,133.6z M403.46,80.61c-9.1,0-16.5,8.97-16.5,20c0,11.03,7.4,20,16.5,20s16.5-8.97,16.5-20
	C419.96,89.58,412.55,80.61,403.46,80.61z"/>
</svg>
